<svg width="32" height="32" fill="none" xmlns="http://www.w3.org/2000/svg"><path d="M8.25 14.588l-3.753-2.254L16 19.253l-7.75-4.665zM16 19.253l11.503-6.92-3.752 2.255L16 19.253z" fill="#FFE26E"/><path d="M0 9.626l2.824 1.7a2.17 2.17 0 011.406-.783L16 9.067 4.23 10.544a2.17 2.17 0 00-1.406.783l1.673 1.007 3.752 2.254L16 19.253l7.75-4.665 3.753-2.254L32 9.626 16 0 0 9.626z" fill="#96C9EF"/><path d="M3.402 30.881L2.306 24.73.116 32l3.286-1.119z" fill="#55A2FF"/><path d="M4.497 12.334v6.801c0 1.84 1.506 3.49 3.895 4.615A18.15 18.15 0 0016 25.288v-6.035l-11.503-6.92z" fill="#D0E6F8"/><path d="M16 19.253v6.035a18.15 18.15 0 007.608-1.538c2.389-1.125 3.895-2.774 3.895-4.615v-6.801L16 19.253z" fill="#DBECFA"/><path d="M2.306 22.491a.554.554 0 01-.548-.56v-9.167c.002-1.412 1.033-2.602 2.406-2.776l11.77-1.476a.55.55 0 01.61.487.557.557 0 01-.477.623L4.297 11.1c-.824.103-1.443.818-1.443 1.665v9.168c0 .309-.245.56-.548.56z" fill="#57A4FF"/><path d="M4.497 23.61c0 1.236-.98 2.237-2.19 2.237S.114 24.846.114 23.61c0-1.236.981-2.237 2.191-2.237s2.191 1.001 2.191 2.237z" fill="#398DF3"/></svg>